# xmcd
#
# Track frame offsets:
#	150
#	15047
#	29460
#	40922
#	55572
#	64157
#	77877
#	91670
#	105102
#	120712
#	135065
#	147340
#	161665
#	175422
#	190855
#	201760
#	216320
#	228422
#	240890
#	278647
#	293010
#	306287
#	315590
#	330525
#
# Disc length: 4598 seconds
#
# Revision: 0
# Processed by: cddbd v1.5.1PL0 Copyright (c) Steve Scherf et al.
# Submitted via: EasyCDDAExtractor 8.0.1.1
#
DISCID=3711f418
DTITLE=Various Artist - More Bewitching Piano
DYEAR=2002
DGENRE=Alternative
TTITLE0=Eddie Heywood - Sweet And Lovely
TTITLE1=Steve Race - So In Love
TTITLE2=Ben Light - Perfidia
TTITLE3=Carmen Cavallaro - They Can't Take That Away From Me
TTITLE4=Frankie Carle - Running Wild
TTITLE5=Diana  Lynn - Lover
TTITLE6=Jan August - Intermezzo
TTITLE7=Barclay Allen - Green Eyes
TTITLE8=Carroll Gibbons - Medley: I'm In A Dancing Mood-Everything's In Rythmn
TTITLE8=With My Heart
TTITLE9=Semprini - Kitten On The Keys
TTITLE10=Felix King - Once In A While
TTITLE11=Frankie Carle - Sunrise Serenade
TTITLE12=Eddie Heywood - Who's Sorry Now
TTITLE13=Semprini - Medley: With These Hands-Our Very Own-A Begger In Love
TTITLE14=Stanley Black - Falling In Love With Love
TTITLE15=Ian Stewart - Bali Hai
TTITLE16=Carmen Cavallero - Some Enchanted Evening
TTITLE17=Frankie Forba - At Sundown
TTITLE18=Vivian Ellis - "Bless The Brides" Selection
TTITLE19=Ben Light - Tea For Two
TTITLE20=Semprini - Medley:Lovliest Night Of The Year-Unless-On Top Of Old Smo
TTITLE20=key 
TTITLE21=Jan August - Oye Negra
TTITLE22=Carroll Gibbons - Medley: May I Have The Next Romance-There Isn't Any
TTITLE22=Limit To My Love
TTITLE23=Eddy Duchin - Isn't It A Lovely Day
EXTD=
EXTT0=
EXTT1=
EXTT2=
EXTT3=
EXTT4=
EXTT5=
EXTT6=
EXTT7=
EXTT8=
EXTT9=
EXTT10=
EXTT11=
EXTT12=
EXTT13=
EXTT14=
EXTT15=
EXTT16=
EXTT17=
EXTT18=
EXTT19=
EXTT20=
EXTT21=
EXTT22=
EXTT23=
PLAYORDER=
